<svg t="1635946769557" class="icon" viewBox="0 0 1024 1024" version="1.1" xmlns="http://www.w3.org/2000/svg" p-id="78177" width="300" height="300"><path d="M512 1024C229.229714 1024 0 794.733714 0 511.963429 0 229.193143 229.229714-0.036571 512-0.036571 794.770286-0.036571 1024 229.193143 1024 511.963429 1024 794.733714 794.770286 1024 512 1024ZM512 73.142857C269.641143 73.142857 73.142857 269.641143 73.142857 512 73.142857 754.358857 269.641143 950.857143 512 950.857143 754.358857 950.857143 950.857143 754.358857 950.857143 512 950.857143 269.641143 754.358857 73.142857 512 73.142857ZM464.676571 684.178286 455.826286 692.992 454.107429 691.273143C449.462857 693.467429 444.342857 694.857143 438.857143 694.857143 431.067429 694.857143 424.228571 691.858286 418.304 687.725714L417.426286 688.566857 413.037714 684.178286C413.001143 684.141714 413.001143 684.141714 412.964571 684.105143L262.253714 533.394286 314.002286 481.682286 438.857143 606.537143 714.422857 330.934857 766.171429 382.683429 464.749714 684.105143C464.713143 684.141714 464.713143 684.141714 464.676571 684.178286Z" p-id="78178" fill="#4cd964"></path></svg>