<svg t="1636374669094" class="icon" viewBox="0 0 1024 1024" version="1.1" xmlns="http://www.w3.org/2000/svg" p-id="90564" width="300" height="300"><path d="M509.505795 749.981522c-105.616664 0-191.451705-85.835041-191.451705-191.451705s85.835041-191.451705 191.451705-191.451705 191.451705 85.835041 191.451705 191.451705S615.122459 749.981522 509.505795 749.981522zM509.505795 430.895347c-70.353771 0-127.63447 57.280699-127.63447 127.63447s57.280699 127.63447 127.63447 127.63447 127.63447-57.280699 127.63447-127.63447S579.859567 430.895347 509.505795 430.895347z" p-id="90565"></path><path d="M860.586595 909.610616 158.424996 909.610616c-52.808332 0-95.81186-43.003528-95.81186-95.81186L62.613136 303.260877c0-52.808332 43.003528-95.81186 95.81186-95.81186l95.81186 0c17.545439 0 31.994625 14.277171 31.994625 31.994625 0 17.717453-14.277171 31.994625-31.994625 31.994625L158.424996 271.438266c-17.545439 0-31.994625 14.277171-31.994625 31.994625l0 510.53788c0 17.545439 14.277171 31.994625 31.994625 31.994625l701.989585 0c17.545439 0 31.994625-14.277171 31.994625-31.994625L892.409205 303.260877c0-17.545439-14.277171-31.994625-31.994625-31.994625l-350.908785 0c-17.545439 0-31.994625-14.277171-31.994625-31.994625 0-17.717453 14.277171-31.994625 31.994625-31.994625l351.0808 0c52.808332 0 95.81186 43.003528 95.81186 95.81186L956.398455 813.626743C956.22644 866.607089 913.222913 909.610616 860.586595 909.610616z" p-id="90566"></path><path d="M764.774735 351.252814c0 26.490173 21.501764 47.819923 47.819923 47.819923 26.490173 0 47.819923-21.501764 47.819923-47.819923s-21.501764-47.819923-47.819923-47.819923C786.276499 303.260877 764.774735 324.762641 764.774735 351.252814z" p-id="90567"></path><path d="M477.683185 143.803796c0 17.545439-14.277171 31.994625-31.994625 31.994625l-127.63447 0c-17.545439 0-31.994625-14.277171-31.994625-31.994625l0 0c0-17.545439 14.277171-31.994625 31.994625-31.994625l127.63447 0C463.234 111.809172 477.683185 126.086343 477.683185 143.803796L477.683185 143.803796z" p-id="90568"></path></svg>