<svg t="1635830385306" class="icon" viewBox="0 0 1024 1024" version="1.1" xmlns="http://www.w3.org/2000/svg" p-id="24364" width="300" height="300"><path d="M749.44 948.48H274.56a32 32 0 0 1-28.16-16L8.96 520.96a32 32 0 0 1 0-32l237.44-411.52A32 32 0 0 1 274.56 64h474.88a32 32 0 0 1 28.16 16l237.44 411.52a32 32 0 0 1 0 32l-237.44 411.52a32 32 0 0 1-28.16 13.44z m-456.96-64h439.04l218.88-379.52L731.52 128H292.48L73.6 504.96z" fill="#2c2c2c" p-id="24365"></path><path d="M512 648.96a144 144 0 1 1 144-144A144 144 0 0 1 512 648.96z m0-224a80 80 0 1 0 80 80A80 80 0 0 0 512 424.96z" fill="#2c2c2c" p-id="24366"></path></svg>