<svg t="1635830057179" class="icon" viewBox="0 0 1024 1024" version="1.1" xmlns="http://www.w3.org/2000/svg" p-id="18878" width="300" height="300"><path d="M863.8 127.7c17.6 0 32 14.4 32 32v704c0 17.6-14.4 32-32 32h-704c-17.6 0-32-14.4-32-32v-704c0-17.6 14.4-32 32-32h704m0-64h-704c-53 0-96 43-96 96v704c0 53 43 96 96 96h704c53 0 96-43 96-96v-704c0-53-42.9-96-96-96z" p-id="18879"></path><path d="M435 737.1c-1.7 0-3.4-0.1-5.1-0.2-17-1.3-32.5-9.2-43.6-22.2L208.8 507c-11.5-13.4-9.9-33.6 3.5-45.1s33.6-9.9 45.1 3.5L434.8 673l332.4-284c13.4-11.5 33.6-9.9 45.1 3.5s9.9 33.6-3.5 45.1l-332.4 284c-11.6 10.2-26.2 15.5-41.4 15.5z" p-id="18880"></path></svg>