<svg t="1635830896505" class="icon" viewBox="0 0 1024 1024" version="1.1" xmlns="http://www.w3.org/2000/svg" p-id="31200" width="300" height="300"><path d="M513.1 956.5c-60.2 0-118.6-11.8-173.6-35-53.1-22.5-100.8-54.6-141.7-95.6-40.9-40.9-73.1-88.6-95.6-141.7-23.3-55-35-113.4-35-173.6S79 392 102.2 337c22.5-53.1 54.6-100.8 95.6-141.7 40.9-40.9 88.6-73.1 141.7-95.6 55-23.3 113.4-35 173.6-35s118.6 11.8 173.6 35c53.1 22.5 100.8 54.6 141.7 95.6 40.9 40.9 73.1 88.6 95.6 141.7 23.3 55 35 113.4 35 173.6s-11.8 118.6-35 173.6c-22.5 53.1-54.6 100.8-95.6 141.7-40.9 40.9-88.6 73.1-141.7 95.6-55 23.2-113.4 35-173.6 35z m0-851.8c-223.8 0-405.9 182.1-405.9 405.9s182.1 405.9 405.9 405.9c223.8 0 405.9-182.1 405.9-405.9S736.9 104.7 513.1 104.7z" p-id="31201"></path><path d="M240 596h49.5V438.6h-40.6v-22.5c21.2-4 36.3-9.2 49.2-17.2h26.8V596h44.3v29.2H240V596zM433.2 604.7c66.7-59.1 101.2-103 101.2-140.3 0-24.6-13.2-41.5-38.4-41.5-17.8 0-32.6 11.4-44.6 25.2l-20-19.7c19.4-20.9 39.4-33.8 68.9-33.8 41.5 0 68.3 27.1 68.3 68 0 43.7-34.8 88.9-82.7 134.7 11.7-1.2 25.8-2.2 36.9-2.2h56.6v30.1H433.2v-20.5zM634.3 598.2l17.2-22.8c13.2 13.5 30.1 24.9 53.5 24.9 25.5 0 43.1-14.1 43.1-37.5 0-25.2-16-41.5-67.1-41.5v-26.1c44.6 0 59.4-16.9 59.4-39.7 0-20-13.2-32.6-34.8-32.9-17.5 0.3-32.3 8.9-45.2 21.5L642 422c17.8-16 38.8-27.4 64.9-27.4 40.6 0 69.2 20.9 69.2 58.4 0 26.1-15.1 44.3-39.1 53.2v1.5c26.1 6.5 46.8 26.1 46.8 56.6 0 40.9-34.1 64.9-75.7 64.9-35.6 0.1-58.7-14.1-73.8-31z" p-id="31202"></path></svg>