<svg t="1635832271218" class="icon" viewBox="0 0 1024 1024" version="1.1" xmlns="http://www.w3.org/2000/svg" p-id="58786" width="300" height="300"><path d="M546.909091 360.727273v162.909091h362.472727v186.181818h-46.545454v-139.636364H546.909091v139.636364h-46.545455v-139.636364H166.027636v139.636364h-46.545454v-186.181818H500.363636v-162.909091z" fill="#2c2c2c" p-id="58787"></path><path d="M1024 698.181818v256H743.796364V698.181818H1024z m-743.796364 0v256H0V698.181818h280.203636z m673.954909 69.818182h-140.567272v116.363636h140.567272v-116.363636z m-743.796363 0h-140.567273v116.363636h140.567273v-116.363636z" fill="#2c2c2c" p-id="58788"></path><path d="M674.909091 698.181818v256H372.363636V698.181818h302.545455z m-69.818182 69.818182h-162.909091v116.363636h162.909091v-116.363636z m162.909091-698.181818v349.090909H279.272727V69.818182h488.727273z m-69.818182 69.818182H349.090909v209.454545h349.090909V139.636364z" fill="#2c2c2c" p-id="58789"></path></svg>