<svg t="1635831939756" class="icon" viewBox="0 0 1024 1024" version="1.1" xmlns="http://www.w3.org/2000/svg" p-id="51948" width="300" height="300"><path d="M950.86 927.35H73.14c-34.57 0-62.69-28.12-62.69-62.69V154.12c0-34.57 28.12-62.69 62.69-62.69h877.71c34.57 0 62.69 28.12 62.69 62.69v710.53c0.01 34.57-28.11 62.7-62.68 62.7zM73.14 133.22c-11.52 0-20.9 9.38-20.9 20.9v710.53c0 11.53 9.38 20.9 20.9 20.9h877.71c11.53 0 20.9-9.37 20.9-20.9V154.12c0-11.52-9.37-20.9-20.9-20.9H73.14z" fill="#000333" p-id="51949"></path><path d="M532.9 117.55h41.8v794.12h-41.8zM282.12 321.31H135.84c-11.54 0-20.9-9.36-20.9-20.9s9.36-20.9 20.9-20.9h146.29c11.54 0 20.9 9.36 20.9 20.9-0.01 11.54-9.37 20.9-20.91 20.9zM773.22 389.22H647.84c-11.55 0-20.9-9.36-20.9-20.9s9.35-20.9 20.9-20.9h125.39c11.55 0 20.9 9.36 20.9 20.9-0.01 11.55-9.35 20.9-20.91 20.9zM898.61 577.31H647.84c-11.55 0-20.9-9.35-20.9-20.9s9.35-20.9 20.9-20.9h250.78c11.55 0 20.9 9.35 20.9 20.9s-9.36 20.9-20.91 20.9zM898.61 765.39H647.84c-11.55 0-20.9-9.35-20.9-20.9s9.35-20.9 20.9-20.9h250.78c11.55 0 20.9 9.35 20.9 20.9s-9.36 20.9-20.91 20.9zM376.17 373.55c-5.99 0-11.93-2.56-16.06-7.52-7.39-8.87-6.19-22.04 2.67-29.43l43.43-36.19-43.43-36.19c-8.87-7.39-10.06-20.56-2.67-29.43 7.39-8.86 20.56-10.06 29.43-2.67l62.69 52.24c4.77 3.97 7.52 9.85 7.52 16.05 0 6.2-2.76 12.08-7.52 16.05l-62.69 52.24a20.803 20.803 0 0 1-13.37 4.85z" fill="#000333" p-id="51950"></path></svg>