<svg t="1635830665216" class="icon" viewBox="0 0 1024 1024" version="1.1" xmlns="http://www.w3.org/2000/svg" p-id="27723" width="300" height="300"><path d="M512 42.667C771.2 42.667 981.333 252.8 981.333 512S771.2 981.333 512 981.333 42.667 771.2 42.667 512 252.8 42.667 512 42.667z m0 55.466c-230.925 0-418.133 186.253-418.133 416s187.208 416 418.133 416 418.133-186.252 418.133-416-187.208-416-418.133-416z m0 106.667c169.66 0 307.2 137.54 307.2 307.2S681.66 819.2 512 819.2 204.8 681.66 204.8 512 342.34 204.8 512 204.8z" p-id="27724"></path></svg>