<svg t="1635832869145" class="icon" viewBox="0 0 1024 1024" version="1.1" xmlns="http://www.w3.org/2000/svg" p-id="67629" width="300" height="300"><path d="M488.106667 792.462222h257.137777a28.444444 28.444444 0 0 0 28.444445-28.444444 28.444444 28.444444 0 0 0-28.444445-28.444445H488.106667a28.444444 28.444444 0 0 0-28.444445 28.444445 28.444444 28.444444 0 0 0 28.444445 28.444444zM242.346667 764.017778A80.782222 80.782222 0 1 0 341.333333 686.08v-96.142222a80.213333 80.213333 0 0 0 0-155.875556V337.92a80.782222 80.782222 0 1 0-39.822222 0v96.142222a80.213333 80.213333 0 0 0 0 155.875556v96.142222a80.782222 80.782222 0 0 0-59.164444 77.937778zM284.444444 259.982222a40.96 40.96 0 0 1 81.92 0 40.391111 40.391111 0 0 1-40.391111 40.96 40.391111 40.391111 0 0 1-41.528889-40.96zM284.444444 512a40.96 40.96 0 1 1 40.96 40.96A40.96 40.96 0 0 1 284.444444 512z m40.391112 211.057778a40.391111 40.391111 0 0 1 40.391111 40.96 40.96 40.96 0 0 1-81.92 0 40.391111 40.391111 0 0 1 39.253333-40.96zM488.106667 540.444444h257.137777a28.444444 28.444444 0 1 0 0-56.888888H488.106667a28.444444 28.444444 0 1 0 0 56.888888zM488.106667 288.426667h257.137777a28.444444 28.444444 0 0 0 28.444445-28.444445 28.444444 28.444444 0 0 0-28.444445-28.444444H488.106667a28.444444 28.444444 0 0 0-28.444445 28.444444 28.444444 28.444444 0 0 0 28.444445 28.444445z" p-id="67630" fill="#515151"></path><path d="M859.022222 79.644444H164.977778a22.755556 22.755556 0 0 0-22.755556 22.755556v819.2a22.755556 22.755556 0 0 0 22.755556 22.755556h694.044444a22.755556 22.755556 0 0 0 22.755556-22.755556V102.4a22.755556 22.755556 0 0 0-22.755556-22.755556z m-22.755555 819.2H187.733333V125.155556h648.533334z" p-id="67631" fill="#515151"></path></svg>