<svg t="1635832532248" class="icon" viewBox="0 0 1024 1024" version="1.1" xmlns="http://www.w3.org/2000/svg" p-id="63261" width="300" height="300"><path d="M748.307692 196.923077a78.769231 78.769231 0 0 1 78.769231 78.769231v472.615384a78.769231 78.769231 0 0 1-78.769231 78.769231H275.692308a78.769231 78.769231 0 0 1-78.769231-78.769231V275.692308a78.769231 78.769231 0 0 1 78.769231-78.769231h472.615384z m0 39.384615H275.692308a39.384615 39.384615 0 0 0-39.108923 34.776616L236.307692 275.692308v472.615384a39.384615 39.384615 0 0 0 34.776616 39.108923L275.692308 787.692308h472.615384a39.384615 39.384615 0 0 0 39.108923-34.776616L787.692308 748.307692V275.692308a39.384615 39.384615 0 0 0-34.776616-39.108923L748.307692 236.307692zM157.538462 295.384615v39.384616H98.461538v354.461538h57.816616v39.384616H59.076923v-433.23077H157.538462z m807.384615 0v433.23077h-97.201231v-39.384616H925.538462v-354.461538H866.461538v-39.384616h98.461539z m-351.113846 120.162462l3.150769 1.969231 64.433231 48.64a19.692308 19.692308 0 0 1-20.716308 33.319384l-2.993231-1.890461-47.53723-35.879385-91.529847 142.217846a19.692308 19.692308 0 0 1-27.096615 5.986462l-2.835692-2.205539-40.132923-37.218461-77.981539 110.434461a19.692308 19.692308 0 0 1-24.418461 6.498462l-3.072-1.811692a19.692308 19.692308 0 0 1-6.498462-24.379077l1.811692-3.072 90.978462-128.748308a19.692308 19.692308 0 0 1 26.387692-5.435077l3.111385 2.363077 39.345231 36.470154 90.348307-140.209231a19.692308 19.692308 0 0 1 25.206154-7.049846zM384 354.461538a29.538462 29.538462 0 1 1 0 59.076924 29.538462 29.538462 0 0 1 0-59.076924z" fill="#333333" p-id="63262"></path></svg>