<svg t="1635830803394" class="icon" viewBox="0 0 1024 1024" version="1.1" xmlns="http://www.w3.org/2000/svg" p-id="30163" width="300" height="300"><path d="M326.4 133.589333a32 32 0 0 1-11.669333 43.733334A394.453333 394.453333 0 0 0 117.333333 519.189333c0 217.962667 176.704 394.666667 394.666667 394.666667s394.666667-176.704 394.666667-394.666667a394.453333 394.453333 0 0 0-197.376-341.888 32 32 0 1 1 32.042666-55.402666A458.432 458.432 0 0 1 970.666667 519.210667c0 253.312-205.354667 458.666667-458.666667 458.666666s-458.666667-205.354667-458.666667-458.666666A458.432 458.432 0 0 1 282.688 121.898667a32 32 0 0 1 43.733333 11.690666z m185.6-90.666666a32 32 0 0 1 32 32v469.333333a32 32 0 0 1-64 0v-469.333333a32 32 0 0 1 32-32z" p-id="30164" fill="#2c2c2c"></path></svg>