<svg t="1635832712865" class="icon" viewBox="0 0 1024 1024" version="1.1" xmlns="http://www.w3.org/2000/svg" p-id="65257" width="300" height="300"><path d="M512 133.12c208.91648 0 378.88 169.96352 378.88 378.88s-169.96352 378.88-378.88 378.88-378.88-169.96352-378.88-378.88 169.96352-378.88 378.88-378.88m0-71.68c-248.83712 0-450.56 201.72288-450.56 450.56s201.72288 450.56 450.56 450.56 450.56-201.72288 450.56-450.56-201.72288-450.56-450.56-450.56z" fill="#707070" p-id="65258"></path><path d="M642.56512 381.43488l-16.896 63.06304-36.75648 137.17504a10.2656 10.2656 0 0 1-7.23968 7.23968l-137.17504 36.75648-63.06304 16.896 16.896-63.06304 36.75648-137.17504a10.2656 10.2656 0 0 1 7.23968-7.23968l137.17504-36.75648 63.06304-16.896m72.50432-92.91264a20.736 20.736 0 0 0-5.39648 0.72192l-148.72064 39.84896-137.17504 36.75648a81.90976 81.90976 0 0 0-57.92256 57.92768l-36.75648 137.17504-39.84896 148.72064c-3.58912 13.40416 6.77376 25.79968 19.6864 25.79968a20.736 20.736 0 0 0 5.39648-0.72192l148.72064-39.84896 137.17504-36.75648a81.90976 81.90976 0 0 0 57.92256-57.92768l36.75648-137.17504 39.84896-148.72064c3.58912-13.39904-6.76864-25.79968-19.6864-25.79968z" fill="#707070" p-id="65259"></path><path d="M512 517.12m-40.96 0a40.96 40.96 0 1 0 81.92 0 40.96 40.96 0 1 0-81.92 0Z" fill="#707070" p-id="65260"></path></svg>