<svg t="1635832823217" class="icon" viewBox="0 0 1024 1024" version="1.1" xmlns="http://www.w3.org/2000/svg" p-id="67070" width="300" height="300"><path d="M209.92 0q25.6 0 43.008 17.408t17.408 43.008l0 149.504q0 25.6-17.408 43.008t-43.008 17.408l-149.504 0q-25.6 0-43.008-17.408t-17.408-43.008l0-149.504q0-25.6 17.408-43.008t43.008-17.408l149.504 0zM572.416 603.136q25.6 0 43.008 17.408t17.408 43.008l0 301.056q0 24.576-17.408 41.984t-43.008 17.408l-150.528 0q-25.6 0-43.008-17.408t-17.408-41.984l0-301.056q0-25.6 17.408-43.008t43.008-17.408l150.528 0zM209.92 330.752q25.6 0 43.008 17.92t17.408 42.496l0 573.44q0 24.576-17.408 41.984t-43.008 17.408l-149.504 0q-25.6 0-43.008-17.408t-17.408-41.984l0-573.44q0-24.576 17.408-42.496t43.008-17.92l149.504 0zM933.888 0q25.6 0 43.008 17.408t17.408 43.008l0 301.056q0 24.576-17.408 42.496t-43.008 17.92l-149.504 0q-25.6 0-43.008-17.92t-17.408-42.496l0-301.056q0-25.6 17.408-43.008t43.008-17.408l149.504 0zM933.888 481.28q25.6 0 43.008 17.92t17.408 43.52l0 421.888q0 24.576-17.408 41.984t-43.008 17.408l-149.504 0q-25.6 0-43.008-17.408t-17.408-41.984l0-421.888q0-25.6 17.408-43.52t43.008-17.92l149.504 0zM572.416 0q25.6 0 43.008 17.408t17.408 43.008l0 420.864q0 25.6-17.408 43.52t-43.008 17.92l-150.528 0q-25.6 0-43.008-17.92t-17.408-43.52l0-420.864q0-25.6 17.408-43.008t43.008-17.408l150.528 0z" p-id="67071" fill="#707070"></path></svg>